<svg xmlns="http://www.w3.org/2000/svg" xmlns:xlink="http://www.w3.org/1999/xlink" width="90" zoomAndPan="magnify" viewBox="0 0 67.5 41.25" height="55" preserveAspectRatio="xMidYMid meet" version="1.0"><defs><g/><clipPath id="96fa5c5a60"><path d="M 1.011719 11.164062 L 20.609375 11.164062 L 20.609375 27.605469 L 1.011719 27.605469 Z M 1.011719 11.164062 " clip-rule="nonzero"/></clipPath><clipPath id="cf9e7f9edf"><path d="M 3.496094 8.3125 L 21.730469 8.3125 L 21.730469 15.394531 L 3.496094 15.394531 Z M 3.496094 8.3125 " clip-rule="nonzero"/></clipPath></defs><g clip-path="url(#96fa5c5a60)"><path fill="#5271ff" d="M 8.59375 27.605469 C 3.660156 27.207031 -1.734375 21.058594 2.59375 16.839844 C 7.355469 12.203125 16.023438 16.324219 20.566406 11.234375 C 18.546875 17.101562 12.625 15.816406 7.855469 16.988281 C 2.5625 18.289062 1.960938 25.285156 8.59375 27.605469 " fill-opacity="1" fill-rule="nonzero"/></g><g clip-path="url(#cf9e7f9edf)"><path fill="#5271ff" d="M 21.730469 8.3125 C 19.242188 16.484375 8.285156 10.5 3.507812 15.347656 C 4.066406 11.144531 6.726562 10.292969 10.277344 10.578125 C 14.496094 10.921875 18.554688 10.867188 21.730469 8.3125 " fill-opacity="1" fill-rule="nonzero"/></g><g fill="#5271ff" fill-opacity="1"><g transform="translate(7.987813, 26.280059)"><g><path d="M 4.34375 -4.734375 L 4.34375 0 L 2.296875 0 L 2.296875 -4.734375 L 0.21875 -4.734375 L 0.21875 -6.359375 L 6.421875 -6.359375 L 6.421875 -4.734375 Z M 4.34375 -4.734375 "/></g></g></g><g fill="#5271ff" fill-opacity="1"><g transform="translate(14.660251, 26.280059)"><g><path d="M 6.71875 -4.40625 C 6.71875 -4.019531 6.609375 -3.664062 6.390625 -3.34375 C 6.179688 -3.03125 5.878906 -2.800781 5.484375 -2.65625 L 6.890625 0 L 4.609375 0 L 3.484375 -2.3125 L 2.71875 -2.3125 L 2.71875 0 L 0.6875 0 L 0.6875 -6.359375 L 4.578125 -6.359375 C 5.023438 -6.359375 5.410156 -6.269531 5.734375 -6.09375 C 6.054688 -5.914062 6.300781 -5.675781 6.46875 -5.375 C 6.632812 -5.082031 6.71875 -4.757812 6.71875 -4.40625 Z M 4.640625 -4.328125 C 4.640625 -4.492188 4.582031 -4.628906 4.46875 -4.734375 C 4.351562 -4.847656 4.21875 -4.90625 4.0625 -4.90625 L 2.71875 -4.90625 L 2.71875 -3.734375 L 4.0625 -3.734375 C 4.21875 -3.734375 4.351562 -3.789062 4.46875 -3.90625 C 4.582031 -4.019531 4.640625 -4.160156 4.640625 -4.328125 Z M 4.640625 -4.328125 "/></g></g></g><g fill="#5271ff" fill-opacity="1"><g transform="translate(21.850212, 26.280059)"><g><path d="M 4.9375 0 L 4.671875 -0.890625 L 2.453125 -0.890625 L 2.171875 0 L 0.09375 0 L 2.40625 -6.359375 L 4.78125 -6.359375 L 7.09375 0 Z M 2.875 -2.3125 L 4.25 -2.3125 L 3.578125 -4.578125 L 3.546875 -4.578125 Z M 2.875 -2.3125 "/></g></g></g><g fill="#5271ff" fill-opacity="1"><g transform="translate(29.040174, 26.280059)"><g><path d="M 5.234375 0 L 2.5625 -3.078125 L 2.5625 0 L 0.6875 0 L 0.6875 -6.359375 L 2.46875 -6.359375 L 5.140625 -3.21875 L 5.140625 -6.359375 L 7.015625 -6.359375 L 7.015625 0 Z M 5.234375 0 "/></g></g></g><g fill="#5271ff" fill-opacity="1"><g transform="translate(36.738423, 26.280059)"><g><path d="M 3.359375 -6.46875 C 4.171875 -6.46875 4.835938 -6.300781 5.359375 -5.96875 C 5.878906 -5.632812 6.144531 -5.144531 6.15625 -4.5 L 6.15625 -4.390625 L 4.25 -4.390625 L 4.25 -4.4375 C 4.25 -4.613281 4.179688 -4.765625 4.046875 -4.890625 C 3.910156 -5.015625 3.703125 -5.078125 3.421875 -5.078125 C 3.148438 -5.078125 2.941406 -5.035156 2.796875 -4.953125 C 2.648438 -4.878906 2.578125 -4.78125 2.578125 -4.65625 C 2.578125 -4.488281 2.675781 -4.363281 2.875 -4.28125 C 3.070312 -4.207031 3.390625 -4.128906 3.828125 -4.046875 C 4.335938 -3.941406 4.757812 -3.832031 5.09375 -3.71875 C 5.425781 -3.601562 5.710938 -3.414062 5.953125 -3.15625 C 6.203125 -2.894531 6.328125 -2.546875 6.328125 -2.109375 C 6.328125 -1.359375 6.070312 -0.800781 5.5625 -0.4375 C 5.0625 -0.0703125 4.382812 0.109375 3.53125 0.109375 C 2.539062 0.109375 1.769531 -0.0546875 1.21875 -0.390625 C 0.664062 -0.722656 0.390625 -1.3125 0.390625 -2.15625 L 2.328125 -2.15625 C 2.328125 -1.832031 2.410156 -1.613281 2.578125 -1.5 C 2.742188 -1.394531 3.003906 -1.34375 3.359375 -1.34375 C 3.609375 -1.34375 3.816406 -1.367188 3.984375 -1.421875 C 4.160156 -1.484375 4.25 -1.597656 4.25 -1.765625 C 4.25 -1.921875 4.15625 -2.035156 3.96875 -2.109375 C 3.78125 -2.191406 3.472656 -2.273438 3.046875 -2.359375 C 2.523438 -2.472656 2.09375 -2.585938 1.75 -2.703125 C 1.414062 -2.828125 1.125 -3.023438 0.875 -3.296875 C 0.625 -3.578125 0.5 -3.957031 0.5 -4.4375 C 0.5 -5.125 0.765625 -5.632812 1.296875 -5.96875 C 1.835938 -6.300781 2.523438 -6.46875 3.359375 -6.46875 Z M 3.359375 -6.46875 "/></g></g></g><g fill="#5271ff" fill-opacity="1"><g transform="translate(43.410861, 26.280059)"><g><path d="M 6.140625 0 L 6.140625 -2.296875 C 6.140625 -2.578125 6.148438 -2.863281 6.171875 -3.15625 C 6.191406 -3.457031 6.210938 -3.707031 6.234375 -3.90625 C 6.265625 -4.113281 6.28125 -4.242188 6.28125 -4.296875 L 6.25 -4.296875 L 5.078125 0 L 3.484375 0 L 2.296875 -4.296875 L 2.265625 -4.296875 C 2.265625 -4.234375 2.28125 -4.101562 2.3125 -3.90625 C 2.34375 -3.707031 2.367188 -3.457031 2.390625 -3.15625 C 2.410156 -2.863281 2.421875 -2.578125 2.421875 -2.296875 L 2.421875 0 L 0.546875 0 L 0.546875 -6.359375 L 3.4375 -6.359375 L 4.390625 -2.6875 L 4.4375 -2.6875 L 5.390625 -6.359375 L 8.15625 -6.359375 L 8.15625 0 Z M 6.140625 0 "/></g></g></g><g fill="#5271ff" fill-opacity="1"><g transform="translate(52.134933, 26.280059)"><g><path d="M 0.6875 -6.359375 L 6.171875 -6.359375 L 6.171875 -4.828125 L 2.71875 -4.828125 L 2.71875 -3.953125 L 5.671875 -3.953125 L 5.671875 -2.5 L 2.71875 -2.5 L 2.71875 -1.53125 L 6.25 -1.53125 L 6.25 0 L 0.6875 0 Z M 0.6875 -6.359375 "/></g></g></g><g fill="#5271ff" fill-opacity="1"><g transform="translate(58.80737, 26.280059)"><g><path d="M 3.4375 -6.359375 C 5.65625 -6.359375 6.765625 -5.296875 6.765625 -3.171875 C 6.765625 -1.054688 5.65625 0 3.4375 0 L 0.6875 0 L 0.6875 -6.359375 Z M 2.71875 -1.53125 L 3.390625 -1.53125 C 4.253906 -1.53125 4.6875 -1.988281 4.6875 -2.90625 L 4.6875 -3.453125 C 4.6875 -4.367188 4.253906 -4.828125 3.390625 -4.828125 L 2.71875 -4.828125 Z M 2.71875 -1.53125 "/></g></g></g></svg>